<?xml version="1.0" encoding="UTF-8"?>
<svg version="1.1" xmlns="http://www.w3.org/2000/svg" width="1024" height="1024">
<path d="M0 0 C337.92 0 675.84 0 1024 0 C1024 337.92 1024 675.84 1024 1024 C686.08 1024 348.16 1024 0 1024 C0 686.08 0 348.16 0 0 Z " fill="#010101" transform="translate(0,0)"/>
<path d="M0 0 C0.66 0.33 1.32 0.66 2 1 C1.16082031 2.15435547 1.16082031 2.15435547 0.3046875 3.33203125 C-11.35643853 19.85422979 -21.51530435 38.48406838 -27 58 C-27.50288268 59.34020676 -28.02126705 60.67481623 -28.5625 62 C-35.8461633 81.09389702 -38.21557455 101.66427365 -38.1875 121.9375 C-38.18722809 122.6709967 -38.18695618 123.40449341 -38.18667603 124.16021729 C-38.16105199 139.17180154 -37.5956114 153.59375732 -33 168 C-32.49339844 169.81177734 -32.49339844 169.81177734 -31.9765625 171.66015625 C-24.51811672 197.88730338 -8.75506966 221.88634928 15.10546875 235.8125 C33.35731374 245.25718046 53.79476052 249.11744669 74.08984375 244.52734375 C86.10201996 240.69258982 97.79799587 234.65287911 107 226 C107.68191406 225.3709375 108.36382813 224.741875 109.06640625 224.09375 C123.59863764 209.30556933 128.27921856 189.7656969 128.4375 169.6875 C128.44789307 168.50696045 128.45828613 167.3264209 128.46899414 166.11010742 C128.39287481 158.64148897 127.35998692 152.0889512 125 145 C147.00602989 155.53653842 162.95363311 180.97605978 170.95703125 203.1875 C175.25616143 216.03756524 177.34364561 228.20100157 177.26074219 241.78759766 C177.25005039 243.8652081 177.26068256 245.94194737 177.2734375 248.01953125 C177.28892812 260.74479412 175.27103627 272.72322321 172.25 285.0625 C171.98904541 286.13741699 171.72809082 287.21233398 171.45922852 288.31982422 C168.00550684 302.31479708 163.72561556 316.00912435 159.09375 329.65234375 C157.80047197 333.61069829 156.70032682 337.59748577 155.67578125 341.6328125 C155 344 155 344 154.015625 346.34375 C152.75411251 349.64309037 152.10906154 352.90819542 151.4375 356.375 C151.06431641 358.27378906 151.06431641 358.27378906 150.68359375 360.2109375 C147.55488063 377.55294739 148.0416251 393.99536416 157.23828125 409.5625 C164.50896831 419.62216458 174.99246018 424.8676787 187 427 C201.15107478 428.60590849 214.59048156 424.62473076 226 416 C226.56460937 415.61972656 227.12921875 415.23945312 227.7109375 414.84765625 C245.50222456 401.60482041 251.6691482 372.97778156 254.71600342 352.40927124 C255.55538867 345.2883871 255.30327713 338.09310892 255.1875 330.9375 C255.17239456 329.28061141 255.15871672 327.62370917 255.14648438 325.96679688 C255.11401434 321.977516 255.06257251 317.98891752 255 314 C257.39370887 316.31060272 259.51453773 318.51643417 261.296875 321.328125 C261.69430908 321.95493164 262.09174316 322.58173828 262.5012207 323.22753906 C262.91331787 323.89495117 263.32541504 324.56236328 263.75 325.25 C264.18465576 325.95092773 264.61931152 326.65185547 265.06713867 327.37402344 C278.84115929 349.95042146 287.07028263 374.12136764 292 400 C292.13567383 400.70705078 292.27134766 401.41410156 292.41113281 402.14257812 C301.12705793 450.0187865 286.68976141 502.93528776 259.4375 542.5625 C257.66130234 545.06970055 255.84179664 547.54070696 254 550 C253.56365234 550.59039063 253.12730469 551.18078125 252.67773438 551.7890625 C240.68730572 567.9184095 226.66324266 582.44315463 211 595 C210.24203125 595.63679687 209.4840625 596.27359375 208.703125 596.9296875 C184.37305574 617.14881402 155.69614927 630.75562953 126 641 C124.87331909 641.39892456 124.87331909 641.39892456 123.72387695 641.8059082 C117.96192598 643.80398866 112.13874581 645.24476845 106.1875 646.5625 C105.20974609 646.78010986 104.23199219 646.99771973 103.22460938 647.22192383 C83.3060951 651.60605384 63.38846787 653.45307706 43 653 C44.43865146 650.12269708 46.09921822 650.10927829 49.125 649.0625 C75.46744789 639.18408204 99.72832515 624.84726399 120.24609375 605.56640625 C122.55543255 603.41429903 124.90329633 601.3503428 127.3125 599.3125 C144.68005559 584.11588886 157.18125015 562.18839573 165.26782227 540.85083008 C165.95126568 539.12319269 166.73410025 537.43580177 167.5234375 535.75390625 C169.69064784 530.74360499 170.60525797 525.3887002 171.6875 520.0625 C171.91244141 519.01642578 172.13738281 517.97035156 172.36914062 516.89257812 C173.55840343 511.14146225 174.26140776 505.87107704 174 500 C173.72027344 500.72703125 173.44054687 501.4540625 173.15234375 502.203125 C164.69165126 523.42286822 151.72908502 539.50440837 130.375 548.74609375 C113.91674046 554.86079434 97.58562064 554.99302888 81.51171875 547.90234375 C69.1875153 541.62317273 60.52233712 530.92431973 55.90893555 517.9465332 C52.05322899 505.44733297 51.58798441 493.07317877 51.51864624 480.10195923 C51.36409714 455.94550431 49.95373513 432.49902804 44 409 C43.66548828 407.48599609 43.66548828 407.48599609 43.32421875 405.94140625 C36.57982391 376.10883765 21.93631122 347.15305187 2 324 C1.06516215 322.87212376 0.13167582 321.74312656 -0.80078125 320.61328125 C-6.74470271 313.46890575 -12.86870357 306.99321252 -20 301 C-21.17105539 300.00317069 -22.34159678 299.00573734 -23.51171875 298.0078125 C-26.66375578 295.32563381 -29.82867648 292.65933869 -33 290 C-31.28552648 293.56819362 -29.30415075 296.95515176 -27.3125 300.375 C-10.22362672 330.22507016 -1.51024813 362.46817162 -1.6875 396.9375 C-1.68965515 397.69701965 -1.6918103 398.45653931 -1.69403076 399.23907471 C-1.86421904 436.85265241 -10.04935151 474.25081377 -37 502 C-37.57234375 502.63421875 -38.1446875 503.2684375 -38.734375 503.921875 C-46.15191444 511.9045603 -55.95166828 517.04567 -66 521 C-66.61157959 521.26111572 -67.22315918 521.52223145 -67.85327148 521.79125977 C-74.7712891 524.47447199 -81.46270294 524.48071099 -88.8125 524.4375 C-90.00681641 524.45748047 -91.20113281 524.47746094 -92.43164062 524.49804688 C-108.94155114 524.48905944 -123.54691093 517.5804441 -136 507 C-136.66515625 506.47921875 -137.3303125 505.9584375 -138.015625 505.421875 C-151.54079213 494.45264497 -159.16683644 478.39072859 -164 462 C-164.75266655 482.63560793 -161.48841673 501.44383542 -155 521 C-154.79181641 521.64179199 -154.58363281 522.28358398 -154.36914062 522.94482422 C-141.66828573 561.48703387 -113.84319444 596.57234889 -81 620 C-80.38769531 620.44601562 -79.77539062 620.89203125 -79.14453125 621.3515625 C-62.50256029 633.43640145 -44.2019397 643.57178348 -25 651 C-25 651.33 -25 651.66 -25 652 C-28.62492967 652.05891984 -32.24973334 652.0939009 -35.875 652.125 C-36.88820313 652.14175781 -37.90140625 652.15851562 -38.9453125 652.17578125 C-44.77260314 652.21313568 -50.09907553 651.77905815 -55.78417969 650.49462891 C-58.7308563 649.83685381 -61.69158314 649.48613143 -64.6875 649.125 C-71.65317589 648.15461967 -78.29375478 646.50939254 -85.04492188 644.55761719 C-87.00883122 643.99748121 -88.979289 643.46927976 -90.953125 642.9453125 C-108.76061552 638.10659928 -125.74441396 630.67744835 -142 622 C-142.64598145 621.66033203 -143.29196289 621.32066406 -143.95751953 620.97070312 C-159.98068383 612.49968247 -174.49393541 602.06299818 -188 590 C-188.51401367 589.54238281 -189.02802734 589.08476563 -189.55761719 588.61328125 C-200.19576952 579.10089457 -210.244343 569.30328964 -219 558 C-219.62793457 557.1946582 -219.62793457 557.1946582 -220.26855469 556.37304688 C-236.21956378 535.77507961 -247.52393174 513.54147765 -256 489 C-256.23992676 488.3076123 -256.47985352 487.61522461 -256.72705078 486.90185547 C-259.364104 479.1829613 -261.47642905 471.41336347 -263.1875 463.4375 C-263.3424292 462.71884766 -263.4973584 462.00019531 -263.65698242 461.25976562 C-266.49797385 447.31617353 -267.40812005 433.68458344 -267.375 419.5 C-267.37445618 418.61982208 -267.37391235 417.73964417 -267.37335205 416.83279419 C-267.33371533 402.84753193 -266.35988151 389.61983716 -263 376 C-262.78037598 375.05463379 -262.56075195 374.10926758 -262.33447266 373.13525391 C-257.98340342 354.47153795 -251.99421031 336.8543772 -243.00732422 319.91308594 C-242.0040133 318.00762196 -241.03258934 316.08857752 -240.06640625 314.1640625 C-235.48643293 305.15107306 -230.10377459 297.04690696 -224 289 C-223.5575293 288.40799805 -223.11505859 287.81599609 -222.65917969 287.20605469 C-216.35622815 278.79454546 -209.6332379 271.23459684 -202 264 C-200.36909395 267.26181209 -201.70101256 270.60683634 -202.375 274.0625 C-207.59399966 301.29311397 -208.01747802 329.6776463 -192.859375 353.81640625 C-187.1671383 361.49290857 -177.26986355 367.18889371 -168 369 C-151.30174414 370.65857486 -137.63191681 367.7357108 -124.0703125 357.55078125 C-113.80948009 348.49844688 -108.69720348 332.44378713 -107.80908203 319.14013672 C-107.52686151 311.7497064 -107.67229402 304.38646785 -108 297 C-108.05003174 295.85337891 -108.05003174 295.85337891 -108.10107422 294.68359375 C-109.17280578 275.29123203 -114.50043852 255.8426902 -118.5 236.8828125 C-126.81512734 197.16065616 -127.09269236 156.72980689 -114 118 C-113.75910645 117.28553711 -113.51821289 116.57107422 -113.27001953 115.83496094 C-101.52287436 82.00113542 -77.41054804 50.52675979 -49 29 C-48.48405273 28.59700684 -47.96810547 28.19401367 -47.43652344 27.77880859 C-33.38915424 16.81229224 -16.95159799 5.84240134 0 0 Z " fill="#FCFCFD" transform="translate(490,168)"/>
<path d="M0 0 C0.33 0 0.66 0 1 0 C1 3.3 1 6.6 1 10 C0.01 9.34 -0.98 8.68 -2 8 C-1.125 2.25 -1.125 2.25 0 0 Z " fill="#323131" transform="translate(664,666)"/>
</svg>
